ply
format ascii 1.0
comment Created by Open Asset Import Library - http://assimp.sf.net (v3.1.187496374)
element vertex 200
property float x
property float y
property float z
property float nx
property float ny
property float nz
property float s
property float t
property float tx
property float ty
property float tz
property float bx
property float by
property float bz
element face 98
property list uint uint vertex_index
end_header
0.008122 6.47186 -0.037324 0 1 0 0.864496 0.499997 1 0 0 4.07665e-06 0 1
0.001068 6.47186 -0.037324 0 1 0 0.5 0.499997 1 0 -3.55734e-09 1.35888e-06 0 1
0.006056 6.47186 -0.032336 0 1 0.0001 0.757738 0.242258 1 -2.79602e-10 2.79602e-06 8.15329e-06 -0.0001 1
0.006056 6.47186 -0.042312 0 1 -0.0001 0.757738 0.757745 1 -4.05519e-11 -4.05519e-07 -4.07665e-06 0.0001 1
0.001068 6.47186 -0.03027 0 1 0 0.5 0.135501 1 0 2.78535e-06 0 0 1
-0.00392 6.47186 -0.032336 0 1 0.0001 0.242262 0.242258 1 5.61339e-10 -5.61339e-06 -4.07665e-06 -0.0001 1
-0.005986 6.47186 -0.037324 0 1 0 0.135504 0.499997 1 0 0 -4.07665e-06 0 1
-0.00392 6.47186 -0.042312 0 1 -0.0001 0.242262 0.757745 1 2.0276e-11 2.0276e-07 8.15329e-06 0.0001 1
0.001068 6.47186 -0.044378 0 1 0 0.5 0.864503 1 0 2.0276e-07 0 0 1
1.10976 2.55432 -0.037324 0.9239 0 0.3827 0.5 0.904913 -0.38269 0 0.923877 0 1 0
1.10976 4.81753 -0.037324 0.9239 0 0.3827 0.5 0.095084 -0.38269 0 0.923877 0 1 0
0.785034 2.55432 0.746643 0.9239 0 0.3827 0.853553 0.904913 -0.38269 0 0.923877 0 1 0
0.785034 4.81753 0.746643 0.9239 0 0.3827 0.853553 0.095084 -0.38269 0 0.923877 0 1 0
0.785034 2.55432 0.746643 0.3827 0 0.9239 0.853553 0.904913 0.923877 0 -0.38269 0 1 0
0.785034 4.81753 0.746643 0.3827 0 0.9239 0.853553 0.095084 0.923877 0 -0.38269 0 1 0
0.001068 4.81753 1.07137 0.3827 0 0.9239 0.5 0.095084 0.923877 0 -0.38269 0 1 0
0.001068 2.55432 1.07137 0.3827 0 0.9239 0.5 0.904913 0.923877 0 -0.38269 0 1 0
0.001068 2.55432 1.07137 -0.3827 0 0.9239 0.5 0.904913 0.923877 0 0.38269 0 1 0
0.001068 4.81753 1.07137 -0.3827 0 0.9239 0.5 0.095084 0.923877 0 0.38269 0 1 0
-0.782898 2.55432 0.746643 -0.3827 0 0.9239 0.146447 0.904913 0.923877 0 0.38269 0 1 0
-0.782898 4.81753 0.746643 -0.3827 0 0.9239 0.146447 0.095084 0.923877 0 0.38269 0 1 0
-0.782898 2.55432 0.746643 -0.9239 0 0.3827 0.853553 0.904913 0.38269 0 0.923877 0 1 0
-0.782898 4.81753 0.746643 -0.9239 0 0.3827 0.853553 0.095084 0.38269 0 0.923877 0 1 0
-1.10763 4.81753 -0.037324 -0.9239 0 0.3827 0.5 0.095084 0.38269 0 0.923877 0 1 0
-1.10763 2.55432 -0.037324 -0.9239 0 0.3827 0.5 0.904913 0.38269 0 0.923877 0 1 0
-1.10763 2.55432 -0.037324 -0.9239 0 -0.3827 0.5 0.904913 -0.38269 0 0.923877 0 1 0
-1.10763 4.81753 -0.037324 -0.9239 0 -0.3827 0.5 0.095084 -0.38269 0 0.923877 0 1 0
-0.782898 2.55432 -0.82129 -0.9239 0 -0.3827 0.146447 0.904913 -0.38269 0 0.923877 0 1 0
-0.782898 4.81753 -0.82129 -0.9239 0 -0.3827 0.146447 0.095084 -0.38269 0 0.923877 0 1 0
-0.782898 2.55432 -0.82129 -0.3827 0 -0.9239 0.146447 0.904913 0.923877 0 -0.38269 0 1 0
-0.782898 4.81753 -0.82129 -0.3827 0 -0.9239 0.146447 0.095084 0.923877 0 -0.38269 0 1 0
0.001068 4.81753 -1.14602 -0.3827 0 -0.9239 0.5 0.095084 0.923877 0 -0.38269 0 1 0
0.001068 2.55432 -1.14602 -0.3827 0 -0.9239 0.5 0.904913 0.923877 0 -0.38269 0 1 0
0.001068 2.55432 -1.14602 0.3827 0 -0.9239 0.5 0.904913 0.923877 0 0.38269 0 1 0
0.001068 4.81753 -1.14602 0.3827 0 -0.9239 0.5 0.095084 0.923877 0 0.38269 0 1 0
0.785034 2.55432 -0.82129 0.3827 0 -0.9239 0.853553 0.904913 0.923877 0 0.38269 0 1 0
0.785034 4.81753 -0.82129 0.3827 0 -0.9239 0.853553 0.095084 0.923877 0 0.38269 0 1 0
0.785034 2.55432 -0.82129 0.9239 0 -0.3827 0.146447 0.904913 0.38269 0 0.923877 0 1 0
0.785034 4.81753 -0.82129 0.9239 0 -0.3827 0.146447 0.095084 0.38269 0 0.923877 0 1 0
1.10976 4.81753 -0.037324 0.9239 0 -0.3827 0.5 0.095084 0.38269 0 0.923877 0 1 0
1.10976 2.55432 -0.037324 0.9239 0 -0.3827 0.5 0.904913 0.38269 0 0.923877 0 1 0
0.006056 6.47186 -0.032336 0.7869 0.524 0.3259 0.757742 0 -0.38265 1.92446e-05 0.923894 -0.486137 0.851706 -0.195621
0.785034 4.81753 0.746643 0.7869 0.524 0.3259 0.853553 0.095084 -0.382651 2.17743e-05 0.923893 -0.444206 0.847601 -0.290265
1.10976 4.81753 -0.037324 0.7869 0.524 0.3259 0.5 0.095084 -0.38265 1.92446e-05 0.923894 -0.486137 0.851706 -0.195621
0.008122 6.47186 -0.037324 0.7869 0.524 0.3259 0.500003 0 -0.382647 1.41853e-05 0.923895 -0.554261 0.832343 2.03113e-06
0.001068 6.47186 -0.03027 0.3259 0.524 0.7869 0.500003 0 0.923894 1.9017e-05 -0.38265 -0.133036 0.849479 -0.510574
0.001068 4.81753 1.07137 0.3259 0.524 0.7869 0.5 0.095084 0.923893 2.14477e-05 -0.382651 -1.2516e-06 0.832343 -0.55426
0.785034 4.81753 0.746643 0.3259 0.524 0.7869 0.853553 0.095084 0.923894 1.9017e-05 -0.38265 -0.133036 0.849479 -0.510574
0.006056 6.47186 -0.032336 0.3259 0.524 0.7869 0.757742 0 0.923895 1.41556e-05 -0.382647 -0.391079 0.832512 -0.392405
-0.00392 6.47186 -0.032336 -0.3259 0.524 0.7869 0.242262 0 0.923894 -1.90493e-05 0.38265 0.195617 0.851706 -0.486138
-0.782898 4.81753 0.746643 -0.3259 0.524 0.7869 0.146447 0.095084 0.923893 -2.14961e-05 0.382651 0.290261 0.847601 -0.444208
0.001068 4.81753 1.07137 -0.3259 0.524 0.7869 0.5 0.095084 0.923894 -1.90493e-05 0.38265 0.195617 0.851706 -0.486138
0.001068 6.47186 -0.03027 -0.3259 0.524 0.7869 0.500003 0 0.923895 -1.41556e-05 0.382647 -2.10494e-06 0.832343 -0.554261
-0.005986 6.47186 -0.037324 -0.7869 0.524 0.3259 0.500003 0 0.38265 1.91962e-05 0.923894 0.510574 0.849479 -0.133036
-1.10763 4.81753 -0.037324 -0.7869 0.524 0.3259 0.5 0.095084 0.382651 2.17017e-05 0.923893 0.55426 0.832343 -1.25783e-06
-0.782898 4.81753 0.746643 -0.7869 0.524 0.3259 0.853553 0.095084 0.38265 1.91962e-05 0.923894 0.510574 0.849479 -0.133036
-0.00392 6.47186 -0.032336 -0.7869 0.524 0.3259 0.757742 0 0.382647 1.41853e-05 0.923895 0.392404 0.832511 -0.39108
-0.00392 6.47186 -0.042312 -0.7869 0.524 -0.3259 0.242262 0 -0.38265 -1.93817e-05 0.923894 0.486138 0.851706 0.195617
-0.782898 4.81753 -0.82129 -0.7869 0.524 -0.3259 0.146447 0.095084 -0.382651 -2.198e-05 0.923893 0.444208 0.847601 0.290261
-1.10763 4.81753 -0.037324 -0.7869 0.524 -0.3259 0.5 0.095084 -0.38265 -1.93817e-05 0.923894 0.486138 0.851706 0.195617
-0.005986 6.47186 -0.037324 -0.7869 0.524 -0.3259 0.500003 0 -0.382647 -1.41853e-05 0.923895 0.554261 0.832343 -2.10187e-06
0.001068 6.47186 -0.044378 -0.3259 0.524 -0.7869 0.500003 0 0.923894 -1.90181e-05 -0.38265 0.133031 0.849479 0.510576
0.001068 4.81753 -1.14602 -0.3259 0.524 -0.7869 0.5 0.095084 0.923893 -2.13751e-05 -0.382651 -5.23222e-06 0.832342 0.554262
-0.782898 4.81753 -0.82129 -0.3259 0.524 -0.7869 0.146447 0.095084 0.923894 -1.90181e-05 -0.38265 0.133031 0.849479 0.510576
-0.00392 6.47186 -0.042312 -0.3259 0.524 -0.7869 0.242262 0 0.923895 -1.43042e-05 -0.382647 0.39108 0.832511 0.392405
0.006056 6.47186 -0.042312 0.3259 0.524 -0.7869 0.757742 0 0.923894 1.90665e-05 0.38265 -0.195621 0.851706 0.486137
0.785034 4.81753 -0.82129 0.3259 0.524 -0.7869 0.853553 0.095084 0.923893 2.14477e-05 0.382651 -0.290265 0.847601 0.444206
0.001068 4.81753 -1.14602 0.3259 0.524 -0.7869 0.5 0.095084 0.923894 1.90665e-05 0.38265 -0.195621 0.851706 0.486137
0.001068 6.47186 -0.044378 0.3259 0.524 -0.7869 0.500003 0 0.923895 1.43042e-05 0.382647 1.87637e-06 0.832343 0.554261
0.008122 6.47186 -0.037324 0.7869 0.524 -0.3259 0.500003 0 0.38265 -1.93576e-05 0.923894 -0.510576 0.849479 0.133031
1.10976 4.81753 -0.037324 0.7869 0.524 -0.3259 0.5 0.095084 0.382651 -2.19437e-05 0.923893 -0.554262 0.832342 -5.39048e-06
0.785034 4.81753 -0.82129 0.7869 0.524 -0.3259 0.146447 0.095084 0.38265 -1.93576e-05 0.923894 -0.510576 0.849479 0.133031
0.006056 6.47186 -0.042312 0.7869 0.524 -0.3259 0.242262 0 0.382647 -1.41853e-05 0.923895 -0.392405 0.832511 0.39108
-0.019721 0.825812 -0.04144 0.7906 -0.5174 0.3275 0.500004 1 -0.3827 1.07616e-05 0.923873 0.547016 0.83712 0.00199979
1.10976 2.55432 -0.037324 0.7906 -0.5174 0.3275 0.5 0.904913 -0.3827 1.07616e-05 0.923873 0.547016 0.83712 0.00199979
0.785034 2.55432 0.746643 0.7906 -0.5174 0.3275 0.853553 0.904913 -0.3827 1.07616e-05 0.923873 0.547016 0.83712 0.00199979
-0.019721 0.825812 -0.04144 0.3282 -0.5141 0.7924 0.786376 1 0.923886 -1.0693e-05 -0.382667 0.322313 0.849515 0.417659
0.785034 2.55432 0.746643 0.3282 -0.5141 0.7924 0.853553 0.904913 0.923886 -1.0693e-05 -0.382667 0.322313 0.849515 0.417659
0.001068 2.55432 1.07137 0.3282 -0.5141 0.7924 0.5 0.904913 0.923886 -1.0693e-05 -0.382667 0.322313 0.849515 0.417659
-0.019721 0.825812 -0.04144 -0.3296 -0.5083 0.7956 0.500004 1 0.923864 -2.44303e-05 0.382721 0.0101001 0.84075 0.54133
0.001068 2.55432 1.07137 -0.3296 -0.5083 0.7956 0.5 0.904913 0.923864 -2.44303e-05 0.382721 0.0101001 0.84075 0.54133
-0.782898 2.55432 0.746643 -0.3296 -0.5083 0.7956 0.146447 0.904913 0.923864 -2.44303e-05 0.382721 0.0101001 0.84075 0.54133
-0.019721 0.825812 -0.04144 -0.7984 -0.5033 0.3307 0.786376 1 0.382678 -3.83414e-06 0.923882 -0.40855 0.856087 0.316547
-0.782898 2.55432 0.746643 -0.7984 -0.5033 0.3307 0.853553 0.904913 0.382678 -3.83414e-06 0.923882 -0.40855 0.856087 0.316547
-1.10763 2.55432 -0.037324 -0.7984 -0.5033 0.3307 0.5 0.904913 0.382678 -3.83414e-06 0.923882 -0.40855 0.856087 0.316547
-0.019721 0.825812 -0.04144 -0.799 -0.5021 -0.331 0.500004 1 -0.382716 -1.98552e-05 0.923866 -0.532672 0.846319 0.00201793
-1.10763 2.55432 -0.037324 -0.799 -0.5021 -0.331 0.5 0.904913 -0.382716 -1.98552e-05 0.923866 -0.532672 0.846319 0.00201793
-0.782898 2.55432 -0.82129 -0.799 -0.5021 -0.331 0.146447 0.904913 -0.382716 -1.98552e-05 0.923866 -0.532672 0.846319 0.00201793
-0.019721 0.825812 -0.04144 -0.3302 -0.5055 -0.7972 0.213616 1 0.923883 4.94782e-06 -0.382675 -0.304355 0.856435 -0.416997
-0.782898 2.55432 -0.82129 -0.3302 -0.5055 -0.7972 0.146447 0.904913 0.923883 4.94782e-06 -0.382675 -0.304355 0.856435 -0.416997
0.001068 2.55432 -1.14602 -0.3302 -0.5055 -0.7972 0.5 0.904913 0.923883 4.94782e-06 -0.382675 -0.304355 0.856435 -0.416997
-0.019721 0.825812 -0.04144 0.3289 -0.5113 -0.794 0.500004 1 0.923875 7.02296e-06 0.382694 0.0101247 0.842619 -0.538415
0.001068 2.55432 -1.14602 0.3289 -0.5113 -0.794 0.5 0.904913 0.923875 7.02296e-06 0.382694 0.0101247 0.842619 -0.538415
0.785034 2.55432 -0.82129 0.3289 -0.5113 -0.794 0.853553 0.904913 0.923875 7.02296e-06 0.382694 0.0101247 0.842619 -0.538415
-0.019721 0.825812 -0.04144 0.7912 -0.5163 -0.3277 0.213616 1 0.382665 1.25981e-05 0.923887 0.426072 0.849836 -0.310229
0.785034 2.55432 -0.82129 0.7912 -0.5163 -0.3277 0.146447 0.904913 0.382665 1.25981e-05 0.923887 0.426072 0.849836 -0.310229
1.10976 2.55432 -0.037324 0.7912 -0.5163 -0.3277 0.5 0.904913 0.382665 1.25981e-05 0.923887 0.426072 0.849836 -0.310229
0.010294 7.56002 -0.019787 0 1 0.0001 0.864496 0.499997 1 0 0 1.18274e-06 -0.0001 1
0.000618 7.56002 -0.019787 0 1 0 0.5 0.499997 1 0 -5.68737e-10 3.85717e-07 0 1
0.00746 7.56002 -0.012945 0 1 0.0001 0.757738 0.242258 1 1.08921e-11 -1.08921e-07 2.36514e-06 -0.0001 1
0.00746 7.56002 -0.02663 0 1 0 0.757738 0.757745 1 0 -2.31217e-05 -1.1824e-06 0 1
0.000618 7.56002 -0.010111 0 1 0 0.5 0.135501 1 0 -1.08937e-07 0 0 1
-0.006225 7.56002 -0.012945 0 1 0 0.242262 0.242258 1 0 2.1781e-07 -1.5459e-05 0 1
-0.009059 7.56002 -0.019787 0 1 0.0001 0.135504 0.499997 1 0 0 -1.54846e-05 -0.0001 1
-0.006225 7.56002 -0.02663 0 1 0.0001 0.242262 0.757745 1 -1.15592e-09 1.15592e-05 3.08668e-05 -0.0001 1
0.000618 7.56002 -0.029464 0 1 0 0.5 0.864503 1 0 1.15575e-05 0 0 1
1.52146 2.18617 -0.019787 0.9239 0 0.3827 0.5 0.904913 -0.38269 0 0.923877 0 1 0
1.52146 5.2907 -0.019787 0.9239 0 0.3827 0.5 0.095084 -0.38269 0 0.923877 0 1 0
1.07602 2.18617 1.05561 0.9239 0 0.3827 0.853553 0.904913 -0.38269 0 0.923877 0 1 0
1.07602 5.2907 1.05561 0.9239 0 0.3827 0.853553 0.095084 -0.38269 0 0.923877 0 1 0
1.07602 2.18617 1.05561 0.3827 0 0.9239 0.853553 0.904913 0.923877 0 -0.38269 0 1 0
1.07602 5.2907 1.05561 0.3827 0 0.9239 0.853553 0.095084 0.923877 0 -0.38269 0 1 0
0.000618 5.2907 1.50106 0.3827 0 0.9239 0.5 0.095084 0.923877 0 -0.38269 0 1 0
0.000618 2.18617 1.50106 0.3827 0 0.9239 0.5 0.904913 0.923877 0 -0.38269 0 1 0
0.000618 2.18617 1.50106 -0.3827 0 0.9239 0.5 0.904913 0.923877 0 0.38269 0 1 0
0.000618 5.2907 1.50106 -0.3827 0 0.9239 0.5 0.095084 0.923877 0 0.38269 0 1 0
-1.07478 2.18617 1.05561 -0.3827 0 0.9239 0.146447 0.904913 0.923877 0 0.38269 0 1 0
-1.07478 5.2907 1.05561 -0.3827 0 0.9239 0.146447 0.095084 0.923877 0 0.38269 0 1 0
-1.07478 2.18617 1.05561 -0.9239 0 0.3827 0.853553 0.904913 0.38269 0 0.923877 0 1 0
-1.07478 5.2907 1.05561 -0.9239 0 0.3827 0.853553 0.095084 0.38269 0 0.923877 0 1 0
-1.52023 5.2907 -0.019787 -0.9239 0 0.3827 0.5 0.095084 0.38269 0 0.923877 0 1 0
-1.52023 2.18617 -0.019787 -0.9239 0 0.3827 0.5 0.904913 0.38269 0 0.923877 0 1 0
-1.52023 2.18617 -0.019787 -0.9239 0 -0.3827 0.5 0.904913 -0.38269 0 0.923877 0 1 0
-1.52023 5.2907 -0.019787 -0.9239 0 -0.3827 0.5 0.095084 -0.38269 0 0.923877 0 1 0
-1.07478 2.18617 -1.09519 -0.9239 0 -0.3827 0.146447 0.904913 -0.38269 0 0.923877 0 1 0
-1.07478 5.2907 -1.09519 -0.9239 0 -0.3827 0.146447 0.095084 -0.38269 0 0.923877 0 1 0
-1.07478 2.18617 -1.09519 -0.3827 0 -0.9239 0.146447 0.904913 0.923877 0 -0.38269 0 1 0
-1.07478 5.2907 -1.09519 -0.3827 0 -0.9239 0.146447 0.095084 0.923877 0 -0.38269 0 1 0
0.000618 5.2907 -1.54063 -0.3827 0 -0.9239 0.5 0.095084 0.923877 0 -0.38269 0 1 0
0.000618 2.18617 -1.54063 -0.3827 0 -0.9239 0.5 0.904913 0.923877 0 -0.38269 0 1 0
0.000618 2.18617 -1.54063 0.3827 0 -0.9239 0.5 0.904913 0.923877 0 0.38269 0 1 0
0.000618 5.2907 -1.54063 0.3827 0 -0.9239 0.5 0.095084 0.923877 0 0.38269 0 1 0
1.07602 2.18617 -1.09519 0.3827 0 -0.9239 0.853553 0.904913 0.923877 0 0.38269 0 1 0
1.07602 5.2907 -1.09519 0.3827 0 -0.9239 0.853553 0.095084 0.923877 0 0.38269 0 1 0
1.07602 2.18617 -1.09519 0.9239 0 -0.3827 0.146447 0.904913 0.38269 0 0.923877 0 1 0
1.07602 5.2907 -1.09519 0.9239 0 -0.3827 0.146447 0.095084 0.38269 0 0.923877 0 1 0
1.52146 5.2907 -0.019787 0.9239 0 -0.3827 0.5 0.095084 0.38269 0 0.923877 0 1 0
1.52146 2.18617 -0.019787 0.9239 0 -0.3827 0.5 0.904913 0.38269 0 0.923877 0 1 0
0.00746 7.56002 -0.012945 0.7869 0.524 0.3259 0.757742 0 -0.38265 2.0621e-05 0.923893 -0.486137 0.851706 -0.195621
1.07602 5.2907 1.05561 0.7869 0.524 0.3259 0.853553 0.095084 -0.382651 2.14997e-05 0.923893 -0.444206 0.847601 -0.290266
1.52146 5.2907 -0.019787 0.7869 0.524 0.3259 0.5 0.095084 -0.38265 2.0621e-05 0.923893 -0.486137 0.851706 -0.195621
0.010294 7.56002 -0.019787 0.7869 0.524 0.3259 0.500003 0 -0.382649 1.88636e-05 0.923894 -0.554261 0.832343 1.92294e-06
0.000618 7.56002 -0.010111 0.3259 0.524 0.7869 0.500003 0 0.923893 2.07187e-05 -0.38265 -0.133036 0.849479 -0.510574
0.000618 5.2907 1.50106 0.3259 0.524 0.7869 0.5 0.095084 0.923893 2.16408e-05 -0.382651 -1.27943e-06 0.832343 -0.55426
1.07602 5.2907 1.05561 0.3259 0.524 0.7869 0.853553 0.095084 0.923893 2.07187e-05 -0.38265 -0.133036 0.849479 -0.510574
0.00746 7.56002 -0.012945 0.3259 0.524 0.7869 0.757742 0 0.923894 1.88745e-05 -0.382649 -0.39108 0.832512 -0.392405
-0.006225 7.56002 -0.012945 -0.3259 0.524 0.7869 0.242262 0 0.923895 -1.29364e-05 0.382646 0.195617 0.851706 -0.486138
-1.07478 5.2907 1.05561 -0.3259 0.524 0.7869 0.146447 0.095084 0.923893 -2.14997e-05 0.382651 0.290261 0.847601 -0.444208
0.000618 5.2907 1.50106 -0.3259 0.524 0.7869 0.5 0.095084 0.923895 -1.29364e-05 0.382646 0.195617 0.851706 -0.486138
0.000618 7.56002 -0.010111 -0.3259 0.524 0.7869 0.500003 0 0.923899 4.19019e-06 0.382636 -2.08857e-06 0.832343 -0.554261
-0.009059 7.56002 -0.019787 -0.7869 0.524 0.326 0.500003 0 0.382723 -2.78088e-05 0.923863 0.510564 0.849486 -0.133031
-1.52023 5.2907 -0.019787 -0.7869 0.524 0.3259 0.5 0.095084 0.382651 2.14821e-05 0.923893 0.55426 0.832343 -1.36964e-06
-1.07478 5.2907 1.05561 -0.7869 0.524 0.3259 0.853553 0.095084 0.38265 2.06093e-05 0.923893 0.510574 0.849479 -0.133036
-0.006225 7.56002 -0.012945 -0.7869 0.524 0.326 0.757742 0 0.382722 -2.95624e-05 0.923864 0.392374 0.832532 -0.391067
-0.006225 7.56002 -0.02663 -0.7869 0.524 -0.3259 0.242262 0 -0.382646 -1.29672e-05 0.923895 0.486138 0.851706 0.195617
-1.07478 5.2907 -1.09519 -0.7869 0.524 -0.3259 0.146447 0.095084 -0.382651 -2.1535e-05 0.923893 0.444208 0.847601 0.290261
-1.52023 5.2907 -0.019787 -0.7869 0.524 -0.3259 0.5 0.095084 -0.382646 -1.29672e-05 0.923895 0.486138 0.851706 0.195617
-0.009059 7.56002 -0.019787 -0.7869 0.524 -0.3259 0.500003 0 -0.382636 4.16854e-06 0.923899 0.554261 0.832343 -1.98872e-06
0.000618 7.56002 -0.029464 -0.3259 0.524 -0.7869 0.500003 0 0.923895 -1.2996e-05 -0.382646 0.133031 0.849479 0.510576
0.000618 5.2907 -1.54063 -0.3259 0.524 -0.7869 0.5 0.095084 0.923893 -2.1535e-05 -0.382651 -5.28965e-06 0.832342 0.554262
-1.07478 5.2907 -1.09519 -0.3259 0.524 -0.7869 0.146447 0.095084 0.923895 -1.2996e-05 -0.382646 0.133031 0.849479 0.510576
-0.006225 7.56002 -0.02663 -0.3259 0.524 -0.7869 0.242262 0 0.923899 4.08192e-06 -0.382636 0.39108 0.832512 0.392405
0.00746 7.56002 -0.02663 0.3259 0.524 -0.7869 0.757742 0 0.923893 2.08136e-05 0.382651 -0.195621 0.851706 0.486137
1.07602 5.2907 -1.09519 0.3259 0.524 -0.7869 0.853553 0.095084 0.923893 2.1729e-05 0.382651 -0.290265 0.847601 0.444206
0.000618 5.2907 -1.54063 0.3259 0.524 -0.7869 0.5 0.095084 0.923893 2.08136e-05 0.382651 -0.195621 0.851706 0.486137
0.000618 7.56002 -0.029464 0.3259 0.524 -0.7869 0.500003 0 0.923894 1.89828e-05 0.382649 1.91986e-06 0.832343 0.554261
0.010294 7.56002 -0.019787 0.7869 0.524 -0.3259 0.500003 0 0.382646 -1.29319e-05 0.923895 -0.510576 0.849479 0.133031
1.52146 5.2907 -0.019787 0.7869 0.524 -0.3259 0.5 0.095084 0.382651 -2.14821e-05 0.923893 -0.554262 0.832342 -5.28917e-06
1.07602 5.2907 -1.09519 0.7869 0.524 -0.3259 0.146447 0.095084 0.382646 -1.29319e-05 0.923895 -0.510576 0.849479 0.133031
0.00746 7.56002 -0.02663 0.7869 0.524 -0.3259 0.242262 0 0.382636 4.16854e-06 0.923899 -0.392405 0.832512 0.39108
-0.0279 -0.184907 -0.025433 0.7906 -0.5174 0.3275 0.500004 1 -0.3827 1.1006e-05 0.923873 0.547016 0.83712 0.00199974
1.52146 2.18617 -0.019787 0.7906 -0.5174 0.3275 0.5 0.904913 -0.3827 1.1006e-05 0.923873 0.547016 0.83712 0.00199974
1.07602 2.18617 1.05561 0.7906 -0.5174 0.3275 0.853553 0.904913 -0.3827 1.1006e-05 0.923873 0.547016 0.83712 0.00199974
-0.0279 -0.184907 -0.025433 0.3282 -0.5141 0.7924 0.786376 1 0.923886 -1.08493e-05 -0.382667 0.322313 0.849515 0.417658
1.07602 2.18617 1.05561 0.3282 -0.5141 0.7924 0.853553 0.904913 0.923886 -1.08493e-05 -0.382667 0.322313 0.849515 0.417658
0.000618 2.18617 1.50106 0.3282 -0.5141 0.7924 0.5 0.904913 0.923886 -1.08493e-05 -0.382667 0.322313 0.849515 0.417658
-0.0279 -0.184907 -0.025433 -0.3296 -0.5083 0.7956 0.500004 1 0.923864 -2.44134e-05 0.382721 0.0101004 0.84075 0.54133
0.000618 2.18617 1.50106 -0.3296 -0.5083 0.7956 0.5 0.904913 0.923864 -2.44134e-05 0.382721 0.0101004 0.84075 0.54133
-1.07478 2.18617 1.05561 -0.3296 -0.5083 0.7956 0.146447 0.904913 0.923864 -2.44134e-05 0.382721 0.0101004 0.84075 0.54133
-0.0279 -0.184907 -0.025433 -0.7985 -0.503 0.3308 0.786376 1 0.382721 2.35494e-05 0.923864 -0.408287 0.856253 0.316438
-1.07478 2.18617 1.05561 -0.7984 -0.5033 0.3307 0.853553 0.904913 0.382677 -3.65902e-06 0.923882 -0.40855 0.856087 0.316547
-1.52023 2.18617 -0.019787 -0.7984 -0.5033 0.3307 0.5 0.904913 0.382677 -3.65902e-06 0.923882 -0.40855 0.856087 0.316547
-0.0279 -0.184907 -0.025433 -0.7985 -0.503 0.3308 0.786376 1 0.601974 -0.667168 0.438765 -0.532398 0.846492 0.00201171
-1.52023 2.18617 -0.019787 -0.7984 -0.5033 0.3307 0.5 0.904913 0.602066 -0.66729 0.438452 -0.532643 0.846337 0.00211336
-0.028912 -0.184907 -0.025433 -0.7985 -0.503 0.3307 0.500004 1 0.602009 -0.667206 0.438658 -0.532398 0.846492 0.00201178
-0.028912 -0.184907 -0.025433 -0.7991 -0.5019 -0.331 0.500004 1 -0.382685 -1.03046e-06 0.923879 -0.532466 0.846449 0.00199634
-1.52023 2.18617 -0.019787 -0.7991 -0.5018 -0.331 0.5 0.904913 -0.382685 -1.03026e-06 0.923879 -0.532398 0.846492 0.00202436
-1.07478 2.18617 -1.09519 -0.799 -0.5019 -0.3313 0.146447 0.904913 -0.382937 -0.00015935 0.923775 -0.532509 0.846422 0.00197848
-0.028912 -0.184907 -0.025433 -0.7991 -0.5019 -0.331 0.500004 1 -0.601185 0.6671 0.439948 -0.3732 0.845725 -0.381406
-1.07478 2.18617 -1.09519 -0.799 -0.5019 -0.3313 0.146447 0.904913 -0.601297 0.666846 0.44018 -0.373139 0.845764 -0.38138
-0.0279 -0.184907 -0.025433 -0.7991 -0.5019 -0.331 0.213616 1 -0.601185 0.6671 0.439948 -0.3732 0.845725 -0.381406
-0.0279 -0.184907 -0.025433 -0.3302 -0.5055 -0.7972 0.213616 1 0.923883 5.10419e-06 -0.382675 -0.304355 0.856435 -0.416997
-1.07478 2.18617 -1.09519 -0.3302 -0.5055 -0.7972 0.146447 0.904913 0.923883 5.10419e-06 -0.382675 -0.304355 0.856435 -0.416997
0.000618 2.18617 -1.54063 -0.3302 -0.5055 -0.7972 0.5 0.904913 0.923883 5.10419e-06 -0.382675 -0.304355 0.856435 -0.416997
-0.0279 -0.184907 -0.025433 0.3289 -0.5113 -0.794 0.500004 1 0.923875 6.746e-06 0.382694 0.0101248 0.842619 -0.538415
0.000618 2.18617 -1.54063 0.3289 -0.5113 -0.794 0.5 0.904913 0.923875 6.746e-06 0.382694 0.0101248 0.842619 -0.538415
1.07602 2.18617 -1.09519 0.3289 -0.5113 -0.794 0.853553 0.904913 0.923875 6.746e-06 0.382694 0.0101248 0.842619 -0.538415
-0.0279 -0.184907 -0.025433 0.7912 -0.5163 -0.3277 0.213616 1 0.382665 1.21642e-05 0.923887 0.426072 0.849836 -0.310229
1.07602 2.18617 -1.09519 0.7912 -0.5163 -0.3277 0.146447 0.904913 0.382665 1.21642e-05 0.923887 0.426072 0.849836 -0.310229
1.52146 2.18617 -0.019787 0.7912 -0.5163 -0.3277 0.5 0.904913 0.382665 1.21642e-05 0.923887 0.426072 0.849836 -0.310229
3 0 1 2
3 3 1 0
3 2 1 4
3 4 1 5
3 5 1 6
3 6 1 7
3 7 1 8
3 8 1 3
3 9 10 11
3 10 12 11
3 13 14 15
3 13 15 16
3 17 18 19
3 18 20 19
3 21 22 23
3 21 23 24
3 25 26 27
3 26 28 27
3 29 30 31
3 29 31 32
3 33 34 35
3 34 36 35
3 37 38 39
3 37 39 40
3 41 42 43
3 41 43 44
3 45 46 47
3 45 47 48
3 49 50 51
3 49 51 52
3 53 54 55
3 53 55 56
3 57 58 59
3 57 59 60
3 61 62 63
3 61 63 64
3 65 66 67
3 65 67 68
3 69 70 71
3 69 71 72
3 73 74 75
3 76 77 78
3 79 80 81
3 82 83 84
3 85 86 87
3 88 89 90
3 91 92 93
3 94 95 96
3 97 98 99
3 100 98 97
3 99 98 101
3 101 98 102
3 102 98 103
3 103 98 104
3 104 98 105
3 105 98 100
3 106 107 108
3 107 109 108
3 110 111 112
3 110 112 113
3 114 115 116
3 115 117 116
3 118 119 120
3 118 120 121
3 122 123 124
3 123 125 124
3 126 127 128
3 126 128 129
3 130 131 132
3 131 133 132
3 134 135 136
3 134 136 137
3 138 139 140
3 138 140 141
3 142 143 144
3 142 144 145
3 146 147 148
3 146 148 149
3 150 151 152
3 150 152 153
3 154 155 156
3 154 156 157
3 158 159 160
3 158 160 161
3 162 163 164
3 162 164 165
3 166 167 168
3 166 168 169
3 170 171 172
3 173 174 175
3 176 177 178
3 179 180 181
3 182 183 184
3 185 186 187
3 188 189 190
3 191 192 193
3 194 195 196
3 197 198 199
